<mxfile host="app.diagrams.net" modified="2023-08-23T06:41:09.582Z" agent="Mozilla/5.0 (Macintosh; Intel Mac OS X 10_15_7) AppleWebKit/605.1.15 (KHTML, like Gecko) Version/16.5.2 Safari/605.1.15" etag="9N96MOn83enZJevF-QLm" version="21.6.8" type="github">
  <diagram name="Page-1" id="13e1069c-82ec-6db2-03f1-153e76fe0fe0">
    <mxGraphModel dx="1266" dy="1541" grid="1" gridSize="10" guides="1" tooltips="1" connect="1" arrows="1" fold="1" page="1" pageScale="1" pageWidth="1100" pageHeight="850" background="none" math="0" shadow="0">
      <root>
        <mxCell id="0" />
        <mxCell id="1" parent="0" />
        <mxCell id="7baba1c4bc27f4b0-2" value="EDC" style="shape=umlLifeline;perimeter=lifelinePerimeter;whiteSpace=wrap;html=1;container=1;collapsible=0;recursiveResize=0;outlineConnect=0;rounded=1;shadow=0;comic=0;labelBackgroundColor=none;strokeWidth=1;fontFamily=Verdana;fontSize=12;align=center;fillColor=#CCFF99;" parent="1" vertex="1">
          <mxGeometry x="240" y="80" width="100" height="580" as="geometry" />
        </mxCell>
        <mxCell id="7baba1c4bc27f4b0-10" value="" style="html=1;points=[];perimeter=orthogonalPerimeter;rounded=0;shadow=0;comic=0;labelBackgroundColor=none;strokeWidth=1;fontFamily=Verdana;fontSize=12;align=center;" parent="7baba1c4bc27f4b0-2" vertex="1">
          <mxGeometry x="45" y="100" width="10" height="320" as="geometry" />
        </mxCell>
        <mxCell id="7baba1c4bc27f4b0-3" value="Company" style="shape=umlLifeline;perimeter=lifelinePerimeter;whiteSpace=wrap;html=1;container=1;collapsible=0;recursiveResize=0;outlineConnect=0;rounded=1;shadow=0;comic=0;labelBackgroundColor=none;strokeWidth=1;fontFamily=Verdana;fontSize=12;align=center;" parent="1" vertex="1">
          <mxGeometry x="400" y="80" width="100" height="580" as="geometry" />
        </mxCell>
        <mxCell id="7baba1c4bc27f4b0-13" value="" style="html=1;points=[];perimeter=orthogonalPerimeter;rounded=0;shadow=0;comic=0;labelBackgroundColor=none;strokeWidth=1;fontFamily=Verdana;fontSize=12;align=center;" parent="7baba1c4bc27f4b0-3" vertex="1">
          <mxGeometry x="45" y="120" width="10" height="300" as="geometry" />
        </mxCell>
        <mxCell id="7baba1c4bc27f4b0-4" value="BPN Discovery 1" style="shape=umlLifeline;perimeter=lifelinePerimeter;whiteSpace=wrap;html=1;container=1;collapsible=0;recursiveResize=0;outlineConnect=0;rounded=1;shadow=0;comic=0;labelBackgroundColor=none;strokeWidth=1;fontFamily=Verdana;fontSize=12;align=center;fillColor=#FF9999;" parent="1" vertex="1">
          <mxGeometry x="540" y="80" width="100" height="580" as="geometry" />
        </mxCell>
        <mxCell id="F-69Bmwsysw-YoAs_LHj-7" value="register OEN" style="html=1;verticalAlign=bottom;endArrow=block;labelBackgroundColor=none;fontFamily=Verdana;fontSize=12;edgeStyle=elbowEdgeStyle;elbow=vertical;" parent="7baba1c4bc27f4b0-4" edge="1">
          <mxGeometry x="0.0074" relative="1" as="geometry">
            <mxPoint x="-85" y="200" as="sourcePoint" />
            <Array as="points">
              <mxPoint x="-80" y="200" />
            </Array>
            <mxPoint x="50" y="200" as="targetPoint" />
            <mxPoint as="offset" />
          </mxGeometry>
        </mxCell>
        <mxCell id="7baba1c4bc27f4b0-5" value="BPN Discovery 2" style="shape=umlLifeline;perimeter=lifelinePerimeter;whiteSpace=wrap;html=1;container=1;collapsible=0;recursiveResize=0;outlineConnect=0;rounded=1;shadow=0;comic=0;labelBackgroundColor=none;strokeWidth=1;fontFamily=Verdana;fontSize=12;align=center;fillColor=#FF9999;" parent="1" vertex="1">
          <mxGeometry x="680" y="80" width="100" height="580" as="geometry" />
        </mxCell>
        <mxCell id="7baba1c4bc27f4b0-6" value="BPN Discovery 3" style="shape=umlLifeline;perimeter=lifelinePerimeter;whiteSpace=wrap;html=1;container=1;collapsible=0;recursiveResize=0;outlineConnect=0;rounded=1;shadow=0;comic=0;labelBackgroundColor=none;strokeWidth=1;fontFamily=Verdana;fontSize=12;align=center;fillColor=#FF9999;" parent="1" vertex="1">
          <mxGeometry x="820" y="80" width="100" height="580" as="geometry" />
        </mxCell>
        <mxCell id="7baba1c4bc27f4b0-7" value="Dataspace Discovery Service" style="shape=umlLifeline;perimeter=lifelinePerimeter;whiteSpace=wrap;html=1;container=1;collapsible=0;recursiveResize=0;outlineConnect=0;rounded=1;shadow=0;comic=0;labelBackgroundColor=none;strokeWidth=1;fontFamily=Verdana;fontSize=12;align=center;fillColor=#FF9999;" parent="1" vertex="1">
          <mxGeometry x="960" y="80" width="100" height="580" as="geometry" />
        </mxCell>
        <mxCell id="7baba1c4bc27f4b0-8" value="DTR" style="shape=umlLifeline;perimeter=lifelinePerimeter;whiteSpace=wrap;html=1;container=1;collapsible=0;recursiveResize=0;outlineConnect=0;rounded=1;shadow=0;comic=0;labelBackgroundColor=none;strokeWidth=1;fontFamily=Verdana;fontSize=12;align=center;fillColor=#CCFF99;" parent="1" vertex="1">
          <mxGeometry x="100" y="80" width="100" height="580" as="geometry" />
        </mxCell>
        <mxCell id="7baba1c4bc27f4b0-9" value="" style="html=1;points=[];perimeter=orthogonalPerimeter;rounded=0;shadow=0;comic=0;labelBackgroundColor=none;strokeWidth=1;fontFamily=Verdana;fontSize=12;align=center;" parent="7baba1c4bc27f4b0-8" vertex="1">
          <mxGeometry x="45" y="150" width="10" height="270" as="geometry" />
        </mxCell>
        <mxCell id="7baba1c4bc27f4b0-17" value="register connector &lt;br&gt;and company" style="html=1;verticalAlign=bottom;endArrow=block;labelBackgroundColor=none;fontFamily=Verdana;fontSize=12;edgeStyle=elbowEdgeStyle;elbow=vertical;entryX=0.1;entryY=0.13;entryDx=0;entryDy=0;entryPerimeter=0;" parent="1" source="7baba1c4bc27f4b0-13" target="F-69Bmwsysw-YoAs_LHj-4" edge="1">
          <mxGeometry relative="1" as="geometry">
            <mxPoint x="510" y="220" as="sourcePoint" />
            <Array as="points">
              <mxPoint x="460" y="220" />
            </Array>
          </mxGeometry>
        </mxCell>
        <mxCell id="7baba1c4bc27f4b0-14" value="deploy connector for" style="html=1;verticalAlign=bottom;endArrow=block;entryX=0;entryY=0;labelBackgroundColor=none;fontFamily=Verdana;fontSize=12;edgeStyle=elbowEdgeStyle;elbow=vertical;" parent="1" source="7baba1c4bc27f4b0-10" target="7baba1c4bc27f4b0-13" edge="1">
          <mxGeometry relative="1" as="geometry">
            <mxPoint x="370" y="200" as="sourcePoint" />
          </mxGeometry>
        </mxCell>
        <mxCell id="7baba1c4bc27f4b0-40" value="Digital Twin Registry owned by company" style="shape=note;whiteSpace=wrap;html=1;size=14;verticalAlign=top;align=left;spacingTop=-6;rounded=0;shadow=0;comic=0;labelBackgroundColor=none;strokeWidth=1;fontFamily=Verdana;fontSize=12" parent="1" vertex="1">
          <mxGeometry x="100" y="10" width="100" height="55" as="geometry" />
        </mxCell>
        <mxCell id="7baba1c4bc27f4b0-41" value="Eclipse DataSpace Connector" style="shape=note;whiteSpace=wrap;html=1;size=14;verticalAlign=top;align=left;spacingTop=-6;rounded=0;shadow=0;comic=0;labelBackgroundColor=none;strokeWidth=1;fontFamily=Verdana;fontSize=12" parent="1" vertex="1">
          <mxGeometry x="240" y="10" width="100" height="55" as="geometry" />
        </mxCell>
        <mxCell id="7baba1c4bc27f4b0-42" value="Want to Provide the data" style="shape=note;whiteSpace=wrap;html=1;size=14;verticalAlign=top;align=left;spacingTop=-6;rounded=0;shadow=0;comic=0;labelBackgroundColor=none;strokeWidth=1;fontFamily=Verdana;fontSize=12" parent="1" vertex="1">
          <mxGeometry x="400" y="10" width="100" height="55" as="geometry" />
        </mxCell>
        <mxCell id="7baba1c4bc27f4b0-43" value="150 BPN&#39;s&lt;br&gt;find World Manufacturer identifier (WMI) on registered &amp;nbsp;DTRs" style="shape=note;whiteSpace=wrap;html=1;size=14;verticalAlign=top;align=left;spacingTop=-6;rounded=0;shadow=0;comic=0;labelBackgroundColor=none;strokeWidth=1;fontFamily=Verdana;fontSize=12" parent="1" vertex="1">
          <mxGeometry x="540" y="-20" width="100" height="85" as="geometry" />
        </mxCell>
        <mxCell id="7baba1c4bc27f4b0-44" value="250 BPN&#39;s&lt;br&gt;find Original equipment number (OEN) on registered DTRs" style="shape=note;whiteSpace=wrap;html=1;size=14;verticalAlign=top;align=left;spacingTop=-6;rounded=0;shadow=0;comic=0;labelBackgroundColor=none;strokeWidth=1;fontFamily=Verdana;fontSize=12" parent="1" vertex="1">
          <mxGeometry x="680" y="-20" width="100" height="85" as="geometry" />
        </mxCell>
        <mxCell id="7baba1c4bc27f4b0-45" value="50.000&lt;br&gt;find Manufacturer Part Number (MPN) on registered DTRs" style="shape=note;whiteSpace=wrap;html=1;size=14;verticalAlign=top;align=left;spacingTop=-6;rounded=0;shadow=0;comic=0;labelBackgroundColor=none;strokeWidth=1;fontFamily=Verdana;fontSize=12" parent="1" vertex="1">
          <mxGeometry x="820" y="-20" width="100" height="85" as="geometry" />
        </mxCell>
        <mxCell id="7baba1c4bc27f4b0-46" value="&lt;p style=&quot;margin: 0in; font-family: Calibri; font-size: 11pt;&quot; lang=&quot;de&quot;&gt;Enablement Service&lt;/p&gt;&lt;p style=&quot;margin: 0in; font-family: Calibri; font-size: 11pt;&quot; lang=&quot;de&quot;&gt;&lt;br&gt;&lt;/p&gt;&lt;p style=&quot;margin: 0in; font-family: Calibri; font-size: 11pt;&quot; lang=&quot;de&quot;&gt;PNL98237489324: edc.example.com ec2.example.com&amp;nbsp;&amp;nbsp;&lt;/p&gt;&lt;p style=&quot;margin: 0in; font-family: Calibri; font-size: 11pt;&quot; lang=&quot;de&quot;&gt;BPNLdfouz8934&lt;/p&gt;&lt;p style=&quot;margin: 0in; font-family: Calibri; font-size: 11pt;&quot; lang=&quot;de&quot;&gt;edc.example.com&lt;/p&gt;" style="shape=note;whiteSpace=wrap;html=1;size=14;verticalAlign=top;align=left;spacingTop=-6;rounded=0;shadow=0;comic=0;labelBackgroundColor=none;strokeWidth=1;fontFamily=Verdana;fontSize=12" parent="1" vertex="1">
          <mxGeometry x="960" y="-80" width="140" height="145" as="geometry" />
        </mxCell>
        <mxCell id="F-69Bmwsysw-YoAs_LHj-1" value="&lt;h1&gt;Decentralized Digital Twin Registry (Enablement Service)&lt;/h1&gt;&lt;div&gt;&lt;br&gt;&lt;/div&gt;&lt;div&gt;Scenario 1. Inital Registration of a data provider&amp;nbsp;&lt;br&gt;&lt;/div&gt;" style="text;html=1;strokeColor=none;fillColor=none;spacing=5;spacingTop=-20;whiteSpace=wrap;overflow=hidden;rounded=0;" parent="1" vertex="1">
          <mxGeometry x="100" y="-110" width="769" height="120" as="geometry" />
        </mxCell>
        <mxCell id="F-69Bmwsysw-YoAs_LHj-3" value="Onboarding Service Provider" style="shape=umlLifeline;perimeter=lifelinePerimeter;whiteSpace=wrap;html=1;container=1;collapsible=0;recursiveResize=0;outlineConnect=0;rounded=1;shadow=0;comic=0;labelBackgroundColor=none;strokeWidth=1;fontFamily=Verdana;fontSize=12;align=center;" parent="1" vertex="1">
          <mxGeometry x="1110" y="80" width="100" height="580" as="geometry" />
        </mxCell>
        <mxCell id="F-69Bmwsysw-YoAs_LHj-4" value="" style="html=1;points=[];perimeter=orthogonalPerimeter;rounded=0;shadow=0;comic=0;labelBackgroundColor=none;strokeWidth=1;fontFamily=Verdana;fontSize=12;align=center;" parent="F-69Bmwsysw-YoAs_LHj-3" vertex="1">
          <mxGeometry x="45" y="130" width="10" height="80" as="geometry" />
        </mxCell>
        <mxCell id="F-69Bmwsysw-YoAs_LHj-6" value="register connector &lt;br&gt;and BPNL" style="html=1;verticalAlign=bottom;endArrow=block;labelBackgroundColor=none;fontFamily=Verdana;fontSize=12;edgeStyle=elbowEdgeStyle;elbow=vertical;" parent="F-69Bmwsysw-YoAs_LHj-3" edge="1">
          <mxGeometry relative="1" as="geometry">
            <mxPoint x="45" y="200" as="sourcePoint" />
            <mxPoint x="-95" y="200" as="targetPoint" />
          </mxGeometry>
        </mxCell>
        <mxCell id="F-69Bmwsysw-YoAs_LHj-8" value="register WMI" style="html=1;verticalAlign=bottom;endArrow=block;labelBackgroundColor=none;fontFamily=Verdana;fontSize=12;edgeStyle=elbowEdgeStyle;elbow=vertical;" parent="1" target="7baba1c4bc27f4b0-5" edge="1">
          <mxGeometry relative="1" as="geometry">
            <mxPoint x="455" y="310" as="sourcePoint" />
            <Array as="points" />
            <mxPoint x="590" y="310" as="targetPoint" />
          </mxGeometry>
        </mxCell>
        <mxCell id="F-69Bmwsysw-YoAs_LHj-10" value="register MPN" style="html=1;verticalAlign=bottom;endArrow=block;labelBackgroundColor=none;fontFamily=Verdana;fontSize=12;edgeStyle=elbowEdgeStyle;elbow=vertical;" parent="1" edge="1">
          <mxGeometry relative="1" as="geometry">
            <mxPoint x="455" y="340" as="sourcePoint" />
            <Array as="points" />
            <mxPoint x="867.0000000000005" y="340" as="targetPoint" />
          </mxGeometry>
        </mxCell>
        <mxCell id="F-69Bmwsysw-YoAs_LHj-16" value="create contract &lt;br&gt;offer &quot;DTR&quot; &lt;br&gt;with DTR endpoint" style="html=1;verticalAlign=bottom;endArrow=block;labelBackgroundColor=none;fontFamily=Verdana;fontSize=12;edgeStyle=elbowEdgeStyle;elbow=horizontal;exitX=0.143;exitY=0.811;exitDx=0;exitDy=0;exitPerimeter=0;" parent="1" source="7baba1c4bc27f4b0-10" target="7baba1c4bc27f4b0-9" edge="1">
          <mxGeometry x="0.064" relative="1" as="geometry">
            <mxPoint x="240" y="440" as="sourcePoint" />
            <mxPoint x="370" y="540" as="targetPoint" />
            <Array as="points">
              <mxPoint x="220" y="440" />
            </Array>
            <mxPoint as="offset" />
          </mxGeometry>
        </mxCell>
        <mxCell id="F-69Bmwsysw-YoAs_LHj-15" value="deploy registry for" style="html=1;verticalAlign=bottom;endArrow=block;labelBackgroundColor=none;fontFamily=Verdana;fontSize=12;edgeStyle=elbowEdgeStyle;elbow=vertical;exitX=1.013;exitY=0.063;exitDx=0;exitDy=0;exitPerimeter=0;" parent="1" source="7baba1c4bc27f4b0-9" target="7baba1c4bc27f4b0-13" edge="1">
          <mxGeometry relative="1" as="geometry">
            <mxPoint x="155" y="360" as="sourcePoint" />
            <mxPoint x="449.5000000000002" y="359.9952173913045" as="targetPoint" />
          </mxGeometry>
        </mxCell>
        <mxCell id="9PgZraaCn6j2YhGHZMRW-1" value="&lt;p style=&quot;margin: 0in; font-family: Calibri; font-size: 11pt;&quot; lang=&quot;de&quot;&gt;Enablement Services:&lt;/p&gt;&lt;p style=&quot;margin: 0in; font-family: Calibri; font-size: 11pt;&quot; lang=&quot;de&quot;&gt;&lt;br&gt;&lt;/p&gt;&lt;p style=&quot;margin: 0in; font-family: Calibri; font-size: 11pt;&quot; lang=&quot;de&quot;&gt;Sovity&lt;/p&gt;&lt;p style=&quot;margin: 0in; font-family: Calibri; font-size: 11pt;&quot; lang=&quot;de&quot;&gt;ZF DOS&lt;/p&gt;&lt;p style=&quot;margin: 0in; font-family: Calibri; font-size: 11pt;&quot; lang=&quot;de&quot;&gt;T-Systems Connect&lt;/p&gt;&lt;p style=&quot;margin: 0in; font-family: Calibri; font-size: 11pt;&quot; lang=&quot;de&quot;&gt;&lt;br&gt;&lt;/p&gt;&lt;p style=&quot;margin: 0in; font-family: Calibri; font-size: 11pt;&quot; lang=&quot;de&quot;&gt;Cofinity-X&lt;/p&gt;&lt;p style=&quot;margin: 0in; font-family: Calibri; font-size: 11pt;&quot; lang=&quot;de&quot;&gt;&lt;br&gt;&lt;/p&gt;" style="shape=note;whiteSpace=wrap;html=1;size=14;verticalAlign=top;align=left;spacingTop=-6;rounded=0;shadow=0;comic=0;labelBackgroundColor=none;strokeWidth=1;fontFamily=Verdana;fontSize=12" vertex="1" parent="1">
          <mxGeometry x="1110" y="-70" width="140" height="135" as="geometry" />
        </mxCell>
        <mxCell id="9PgZraaCn6j2YhGHZMRW-3" value="Business Partner Number Issuer" style="shape=umlLifeline;perimeter=lifelinePerimeter;whiteSpace=wrap;html=1;container=1;collapsible=0;recursiveResize=0;outlineConnect=0;rounded=1;shadow=0;comic=0;labelBackgroundColor=none;strokeWidth=1;fontFamily=Verdana;fontSize=12;align=center;fillColor=#FF9999;" vertex="1" parent="1">
          <mxGeometry x="1230" y="80" width="100" height="580" as="geometry" />
        </mxCell>
        <mxCell id="9PgZraaCn6j2YhGHZMRW-4" value="" style="html=1;points=[];perimeter=orthogonalPerimeter;rounded=0;shadow=0;comic=0;labelBackgroundColor=none;strokeWidth=1;fontFamily=Verdana;fontSize=12;align=center;" vertex="1" parent="9PgZraaCn6j2YhGHZMRW-3">
          <mxGeometry x="45" y="130" width="10" height="80" as="geometry" />
        </mxCell>
        <mxCell id="9PgZraaCn6j2YhGHZMRW-5" value="get BPN" style="html=1;verticalAlign=bottom;endArrow=block;labelBackgroundColor=none;fontFamily=Verdana;fontSize=12;edgeStyle=elbowEdgeStyle;elbow=vertical;" edge="1" parent="1" source="F-69Bmwsysw-YoAs_LHj-3" target="9PgZraaCn6j2YhGHZMRW-4">
          <mxGeometry x="0.0476" y="10" relative="1" as="geometry">
            <mxPoint x="1240" y="400" as="sourcePoint" />
            <mxPoint x="1100" y="400" as="targetPoint" />
            <mxPoint x="1" as="offset" />
          </mxGeometry>
        </mxCell>
        <mxCell id="9PgZraaCn6j2YhGHZMRW-11" value="Enablement Services" style="rounded=0;whiteSpace=wrap;html=1;fillColor=#CCFF99;" vertex="1" parent="1">
          <mxGeometry x="800" y="-200" width="120" height="40" as="geometry" />
        </mxCell>
        <mxCell id="9PgZraaCn6j2YhGHZMRW-12" value="Core Services" style="rounded=0;whiteSpace=wrap;html=1;fillColor=#FF6666;" vertex="1" parent="1">
          <mxGeometry x="930" y="-200" width="120" height="40" as="geometry" />
        </mxCell>
      </root>
    </mxGraphModel>
  </diagram>
</mxfile>
